<?xml version="1.0" encoding="utf-8"?>
<!-- Generator: Adobe Illustrator 22.0.0, SVG Export Plug-In . SVG Version: 6.00 Build 0)  -->
<svg version="1.1" id="Слой_1" xmlns="http://www.w3.org/2000/svg" xmlns:xlink="http://www.w3.org/1999/xlink" x="0px" y="0px"
	 viewBox="0 0 19 20" style="enable-background:new 0 0 19 20;" xml:space="preserve">
<style type="text/css">
	.st0{fill:#01AF58;}
</style>
<g>
	<path class="st0" d="M0.2,3.5v15.2c0,0.5,0.4,0.9,0.9,0.9h16.7c0.5,0,0.9-0.4,0.9-0.9V3.5c0-0.5-0.4-0.9-0.9-0.9H1.1
		C0.6,2.5,0.2,2.9,0.2,3.5z M16.8,17.6H2.2V6h14.6V17.6z"/>
</g>
<g>
	<path class="st0" d="M14.3,11.3h-1.8c-0.2,0-0.4-0.2-0.4-0.4V9.1c0-0.2,0.2-0.4,0.4-0.4h1.8c0.2,0,0.4,0.2,0.4,0.4v1.8
		C14.7,11.1,14.5,11.3,14.3,11.3z"/>
</g>
<g>
	<path class="st0" d="M14.6,5.9c-0.7,0-1.3-0.6-1.3-1.3V1.7c0-0.7,0.6-1.3,1.3-1.3c0.7,0,1.3,0.6,1.3,1.3v2.9
		C15.9,5.3,15.3,5.9,14.6,5.9z"/>
</g>
<g>
	<path class="st0" d="M4.6,5.9c-0.7,0-1.3-0.6-1.3-1.3V1.7c0-0.7,0.6-1.3,1.3-1.3s1.3,0.6,1.3,1.3v2.9C5.9,5.3,5.4,5.9,4.6,5.9z"/>
</g>
<g>
	<path class="st0" d="M10.4,11.3H8.6c-0.2,0-0.4-0.2-0.4-0.4V9.1c0-0.2,0.2-0.4,0.4-0.4h1.8c0.2,0,0.4,0.2,0.4,0.4v1.8
		C10.8,11.2,10.7,11.3,10.4,11.3z"/>
</g>
<g>
	<path class="st0" d="M6.5,11.3H4.6c-0.2,0-0.4-0.2-0.4-0.4V9.1c0-0.2,0.2-0.4,0.4-0.4h1.8c0.2,0,0.4,0.2,0.4,0.4v1.8
		C6.8,11.2,6.7,11.3,6.5,11.3z"/>
</g>
<g>
	<path class="st0" d="M14.3,15.2h-1.8c-0.2,0-0.4-0.2-0.4-0.4V13c0-0.2,0.2-0.4,0.4-0.4h1.8c0.2,0,0.4,0.2,0.4,0.4v1.8
		C14.7,15,14.5,15.2,14.3,15.2z"/>
</g>
<g>
	<path class="st0" d="M10.5,15.2H8.7c-0.2,0-0.4-0.2-0.4-0.4V13c0-0.2,0.2-0.4,0.4-0.4h1.8c0.2,0,0.4,0.2,0.4,0.4v1.8
		C10.9,15,10.7,15.2,10.5,15.2z"/>
</g>
<g>
	<path class="st0" d="M6.5,15.2H4.7c-0.2,0-0.4-0.2-0.4-0.4V13c0-0.2,0.2-0.4,0.4-0.4h1.8c0.2,0,0.4,0.2,0.4,0.4v1.8
		C6.9,15,6.7,15.2,6.5,15.2z"/>
</g>
</svg>
