<?xml version="1.0" encoding="utf-8"?>
<!-- Generator: Adobe Illustrator 22.0.0, SVG Export Plug-In . SVG Version: 6.00 Build 0)  -->
<svg version="1.1" id="Слой_1" xmlns="http://www.w3.org/2000/svg" xmlns:xlink="http://www.w3.org/1999/xlink" x="0px" y="0px"
	 viewBox="0 0 185.3 28" style="enable-background:new 0 0 185.3 28;" xml:space="preserve">
<style type="text/css">
	.st0{fill:#242329;}
	.st1{fill:#01AE57;}
</style>
<g>
	<path class="st0" d="M21.1,8l-5.8-0.1l-0.1,18.1H6.7L7.2,7.6L0,7.5v-7l21.1,0.2V8z"/>
	<path class="st0" d="M29.6,0.5l7.7,9.3l5-9.6l9.9,2.6L37.4,27.1L22,5.5L29.6,0.5z"/>
	<path class="st0" d="M75.7,0.8l-2,5.7c-2-0.7-3.4-0.6-4,0.3c-0.8,1.1-0.1,2.5,2.1,4c0.7,0.5,1.7,1.1,3,1.8l0.4,0.2l0.3,0.2
		c0.3,0.1,0.5,0.3,0.6,0.3c0.4,0.3,0.7,0.4,0.9,0.6c1.4,1,2.3,2.3,2.7,3.8c0.4,1.5,0.3,3-0.4,4.5c-0.7,1.6-1.6,2.8-2.8,3.6
		c-1.3,1-3,1.5-5.1,1.7c-1.1,0.1-2.5,0-4.1-0.4c-1.3-0.3-2.7-0.7-4.2-1.3l3.2-5.6c1.1,0.7,2.1,1,2.9,0.9c0.8-0.1,1.2-0.6,1-1.5
		c-0.1-0.6-0.4-1.1-0.9-1.6c-0.4-0.4-1.2-0.9-2.2-1.4l-0.7-0.3L65.9,16c-0.5-0.3-1-0.5-1.4-0.8c-2.3-1.4-3.8-3.1-4.3-5.2
		c-0.4-1.8-0.2-3.6,0.6-5.2c0.8-1.6,2.1-2.8,3.8-3.6c2.2-1.1,4.6-1.5,7.2-1.3C73,0.1,74.3,0.4,75.7,0.8z"/>
	<path class="st0" d="M90.1,1.2L90,10l5,0.5l0.5-10l8.1,0.3l-0.4,24.6l-9-0.2l0.4-8.3l-4.8-0.4L89.8,26l-8.6-0.3L81.1,1.4L90.1,1.2z
		"/>
	<path class="st1" d="M116.4,26.6c-1.8-0.1-3.5-0.6-5.1-1.5c-1.5-0.8-2.8-1.8-3.8-3.1c-1.1-1.3-1.8-2.7-2.3-4.3
		c-0.5-1.7-0.5-3.4-0.3-5.1c0.3-1.8,0.9-3.4,1.9-4.9c0.9-1.5,2.1-2.8,3.6-3.9c3.1-2.3,6.4-3.3,10.2-3c1.8,0.1,3.5,0.6,5.1,1.5
		c1.5,0.8,2.8,1.8,3.9,3.1s1.8,2.7,2.2,4.3c0.5,1.6,0.5,3.4,0.3,5.1c-0.3,1.8-0.9,3.4-1.9,4.9c-0.9,1.5-2.1,2.8-3.6,3.9
		C123.5,25.9,120.1,26.9,116.4,26.6z M113.2,13.4c-0.2,1.4,0.1,2.7,1,3.8c0.9,1.1,2.1,1.7,3.6,1.8c1.5,0.1,2.8-0.3,4.1-1.2
		c1.2-0.9,1.9-2.1,2.2-3.5c0.2-1.4-0.1-2.7-1-3.8c-0.9-1.1-2.1-1.7-3.6-1.8c-1.5-0.1-2.8,0.3-4.1,1.2
		C114.2,10.8,113.5,12,113.2,13.4z"/>
	<path class="st0" d="M139.8,0.4l2.9,8.1l4.2-5.3l5.5,6.4l2.4-8.7l9.5,3.5l-7.9,23.7l-9-12.1l-8.6,11.5l-8.3-24.6L139.8,0.4z"/>
	<path class="st0" d="M180.6,0.8l-2,5.7c-2-0.7-3.4-0.6-4,0.3c-0.8,1.1-0.1,2.5,2.1,4c0.7,0.5,1.7,1.1,3,1.8l0.4,0.2l0.3,0.2
		c0.3,0.1,0.5,0.3,0.6,0.3c0.4,0.3,0.7,0.4,0.9,0.6c1.4,1,2.3,2.3,2.7,3.8c0.4,1.5,0.3,3-0.4,4.5c-0.7,1.6-1.6,2.8-2.8,3.6
		c-1.3,1-3,1.5-5.1,1.7c-1.1,0.1-2.5,0-4.1-0.4c-1.3-0.3-2.7-0.7-4.2-1.3l3.2-5.6c1.1,0.7,2.1,1,2.9,0.9c0.8-0.1,1.2-0.6,1-1.5
		c-0.1-0.6-0.4-1.1-0.9-1.6c-0.4-0.4-1.2-0.9-2.2-1.4l-0.7-0.3l-0.7-0.4c-0.5-0.3-1-0.5-1.4-0.8c-2.3-1.4-3.8-3.1-4.3-5.2
		c-0.4-1.8-0.2-3.6,0.6-5.2c0.8-1.6,2.1-2.8,3.8-3.6c2.2-1.1,4.6-1.5,7.2-1.3C177.9,0.1,179.2,0.4,180.6,0.8z"/>
</g>
<path class="st1" d="M120.9,13.1c-0.1-0.3-0.2-0.5-0.4-0.7s-0.4-0.4-0.7-0.5c-0.3-0.1-0.6-0.2-0.9-0.2c-0.6-0.1-1.2,0.1-1.7,0.5
	c-0.2,0.2-0.5,0.4-0.6,0.7c-0.2,0.3-0.3,0.5-0.3,0.8c0,0.3,0,0.6,0,0.9c0.1,0.3,0.2,0.5,0.4,0.7c0.2,0.2,0.4,0.4,0.7,0.5
	c0.3,0.1,0.6,0.2,0.9,0.2c0.6,0.1,1.2-0.1,1.7-0.5c0.2-0.2,0.5-0.4,0.6-0.7c0.2-0.3,0.3-0.5,0.3-0.8C121,13.7,121,13.4,120.9,13.1z"
	/>
</svg>
