<?xml version="1.0" encoding="utf-8"?>
<!-- Generator: Adobe Illustrator 22.0.0, SVG Export Plug-In . SVG Version: 6.00 Build 0)  -->
<svg version="1.1" id="Слой_1" xmlns="http://www.w3.org/2000/svg" xmlns:xlink="http://www.w3.org/1999/xlink" x="0px" y="0px"
	 viewBox="0 0 25 20" style="enable-background:new 0 0 25 20;" xml:space="preserve">
<style type="text/css">
	.st0{fill:#01AF58;}
</style>
<g>
	<g>
		<g>
			<path class="st0" d="M21.5,2.2c0.8,0,1.4,0.6,1.4,1.4v7.6c0,0.8-0.6,1.4-1.4,1.4h-18c-0.8,0-1.4-0.6-1.4-1.4V3.6
				c0-0.8,0.6-1.4,1.4-1.4H21.5 M21.5,0.1h-18C1.6,0.1,0,1.7,0,3.6v7.6c0,1.9,1.6,3.5,3.5,3.5h18c1.9,0,3.5-1.6,3.5-3.5V3.6
				C25,1.7,23.4,0.1,21.5,0.1L21.5,0.1z"/>
		</g>
	</g>
	<g>
		<path class="st0" d="M8.9,11.6c-0.6,0-1-0.5-1-1V4.8c0-0.6,0.5-1,1-1s1,0.5,1,1v5.7C9.9,11.1,9.4,11.6,8.9,11.6z"/>
	</g>
	<g>
		<path class="st0" d="M10.9,5.8H6.8c-0.6,0-1-0.5-1-1s0.5-1,1-1h4.2c0.6,0,1,0.5,1,1S11.5,5.8,10.9,5.8z"/>
	</g>
	<g>
		<path class="st0" d="M15.4,11.3c-0.4,0-0.8-0.3-1-0.7l-2.1-5.5c-0.2-0.5,0.1-1.1,0.6-1.3c0.5-0.2,1.1,0.1,1.3,0.6l2.1,5.5
			c0.2,0.5-0.1,1.1-0.6,1.3C15.6,11.3,15.5,11.3,15.4,11.3z"/>
	</g>
	<g>
		<path class="st0" d="M15.4,11.3c-0.1,0-0.3,0-0.4-0.1c-0.5-0.2-0.8-0.8-0.5-1.4l2.3-5.5c0.2-0.5,0.8-0.8,1.4-0.5
			c0.5,0.2,0.8,0.8,0.5,1.4l-2.3,5.5C16.2,11.1,15.8,11.3,15.4,11.3z"/>
	</g>
	<g>
		<path class="st0" d="M17.9,19.9H7c-1,0-1.8-0.8-1.8-1.8v0c0-1,0.8-1.8,1.8-1.8h11c1,0,1.8,0.8,1.8,1.8v0
			C19.7,19.1,18.9,19.9,17.9,19.9z"/>
	</g>
	<g>
		<rect x="10" y="13.9" class="st0" width="5.1" height="3.1"/>
	</g>
</g>
</svg>
